# xmcd
#
# Track frame offsets:
# 150
# 31739
# 49377
# 66206
# 89035
# 106056
# 122207
# 144048
# 159714
# 173765
# 190563
# 203456
# 226074
# 244367
# 258370
# 271666
# 321882
#
# Disc length: 4439 seconds
#
#
# Revision: 4
# Processed by: cddbd v1.4PL0 Copyright (c) Steve Scherf et al.
# Submitted via: FreeRIP 2.51 
#
DISCID=e0115511
DTITLE=Various Artist - The Blues Box III
DYEAR=1998
DGENRE=Blues
TTITLE0=Gary Moore - Parisienne walkways
TTITLE1=Robert Cray - Labor of Love
TTITLE2=Stevie Ray Vaughan And Double Trouble - I'm cryin'
TTITLE3=Albert Collins - Iceman
TTITLE4=Atlanta Rhythm Section - How much love is enough
TTITLE5=The Fabulous Thunderbirds - Emergency
TTITLE6=George Thorogood and The Destroyer - Bad to the bone
TTITLE7=Fleetwood Mac - Need your love tonight
TTITLE8=Canned Head - Rollin' and tumblin'
TTITLE9=Peter Green and Mick Green - Chinese white boy
TTITLE10=J J Cale - Long way home
TTITLE11=Alexis Korner - Honky tonk woman
TTITLE12=Rod Stewart - Gasoline alley
TTITLE13=Ten Years After - Love like a man
TTITLE14=The Free - I'm a mover
TTITLE15=Mike Bloomfield, Al Kooper, Steve Stills - Season of the witch
TTITLE16=Stevie Wonder - I call it pretty music, but the old people call it blues
EXTD=
EXTT0=
EXTT1=
EXTT2=
EXTT3=
EXTT4=
EXTT5=
EXTT6=
EXTT7=
EXTT8=
EXTT9=
EXTT10=
EXTT11=
EXTT12=
EXTT13=
EXTT14=
EXTT15=
EXTT16=
PLAYORDER=
